<?xml version="1.0" encoding="utf-8"?>
<!-- Generator: Adobe Illustrator 15.0.0, SVG Export Plug-In . SVG Version: 6.00 Build 0)  -->
<!DOCTYPE svg PUBLIC "-//W3C//DTD SVG 1.1//EN" "http://www.w3.org/Graphics/SVG/1.1/DTD/svg11.dtd">
<svg version="1.1" xmlns="http://www.w3.org/2000/svg" xmlns:xlink="http://www.w3.org/1999/xlink" x="0px" y="0px" width="200px"
	 height="200px" viewBox="0 0 200 200" enable-background="new 0 0 200 200" xml:space="preserve">
<g id="Layer_3">
</g>
<g id="Layer_5">
</g>
<g id="Layer_4">
	<path d="M200,100c0,55.229-44.771,100-100,100S0,155.229,0,100S44.771,0,100,0S200,44.771,200,100z M109.137,115.5
		c-3.987,9-8.486,15.903-13.496,20.288c-6.037,5.296-13.611,7.88-22.721,7.88c-12.129,0-21.867-4.53-29.213-13.528
		c-7.346-8.997-11.019-21.084-11.019-36.233c0-14.064,2.648-25.406,7.944-34.005c6.435-10.421,16.258-15.635,29.47-15.635
		c18.563,0,30.352,9.851,35.363,29.553l7.346,2.476l2.648-26.993c-3.873-3.075-7.218-5.381-10.037-6.919
		c-2.819-1.537-6.364-3.018-10.635-4.442c-7.062-2.334-14.749-3.502-23.063-3.502c-7.119,0-13.91,0.969-20.372,2.904
		c-6.464,1.937-12.031,4.642-16.699,8.115C17.966,57.816,9.625,74.274,9.625,94.831c0,17.938,5.836,32.232,17.511,42.88
		c11.275,10.365,25.967,15.546,44.076,15.546c16.229,0,30.864-4.94,43.905-15.077l2.733-22.68H109.137z M178.344,137.316
		c-4.464,4.059-8.091,6.747-10.88,8.065c-2.486,1.167-4.869,1.75-7.152,1.75c-5.935,0-10.626-2.667-14.075-8.002
		c-2.994-4.572-4.489-10.007-4.489-16.308c0-6.757,1.343-12.371,4.033-16.842c2.383-3.962,5.402-5.944,9.054-5.944
		c1.572,0,4.234,1.254,7.989,3.763l5.554,3.761c1.471,0.615,2.84,0.921,4.108,0.921c1.826,0,3.525-0.611,5.098-1.833
		c1.471-1.477,2.207-3.158,2.207-5.043c0-3.362-1.928-6.112-5.783-8.251c-3.602-1.987-7.862-2.98-12.782-2.98
		c-10.5,0-19.047,3.429-25.64,10.283c-6.594,6.854-9.891,15.538-9.891,26.049c0,9.141,2.713,16.682,8.141,22.623
		c5.427,5.94,12.375,8.912,20.847,8.912c4.818,0,9.739-1.18,14.76-3.538s9.764-6.226,14.228-11.603L178.344,137.316z"/>
</g>
</svg>
