<?xml version="1.0" encoding="utf-8"?>
<!-- Generator: Adobe Illustrator 15.0.0, SVG Export Plug-In . SVG Version: 6.00 Build 0)  -->
<!DOCTYPE svg PUBLIC "-//W3C//DTD SVG 1.1//EN" "http://www.w3.org/Graphics/SVG/1.1/DTD/svg11.dtd">
<svg version="1.1" id="Layer_3" xmlns="http://www.w3.org/2000/svg" xmlns:xlink="http://www.w3.org/1999/xlink" x="0px" y="0px"
	 width="393.179px" height="49.604px" viewBox="0 0 393.179 49.604" enable-background="new 0 0 393.179 49.604"
	 xml:space="preserve">
<g>
	<path d="M29.789,34.904c0,6.735-4.209,14.7-13.599,14.7C6.152,49.604,0,40.668,0,24.802C0,10.556,4.857,0,16.189,0
		c9.196,0,13.599,8.289,13.599,16.125h-1.748c0-4.922-2.461-14.377-11.851-14.377c-10.685,0-14.247,10.426-14.247,23.767
		c0,14.829,5.958,22.342,14.247,22.342c8.613,0,11.592-6.864,11.851-12.952H29.789z"/>
	<path d="M35.614,48.763V0.842h1.943v22.924h20.14V0.842h1.943v47.921h-1.943V25.515h-20.14v23.248H35.614z"/>
	<path d="M68.702,0.842H90.72V2.59H70.645v21.176H90.72v1.749H70.645v21.5H90.72v1.748H68.702V0.842z"/>
	<path d="M98.488,0.842h7.124c7.317,0,9.455,0.971,11.073,2.007c3.497,2.267,5.634,6.671,5.634,11.916c0,3.238-0.583,6.67-2.59,9.52
		c-2.072,2.914-5.44,4.922-9.843,5.116l9.908,19.362h-2.202l-10.685-21.111h1.166c4.209,0,6.8-0.972,9.066-3.108
		s3.238-5.569,3.238-9.52c0-3.626-1.036-8.03-4.468-10.556c-2.72-2.007-6.929-1.878-10.296-1.878h-5.181v46.173h-1.943V0.842z"/>
	<path d="M128.922,0.842h7.124c7.317,0,9.455,0.971,11.073,2.007c3.497,2.267,5.634,6.671,5.634,11.916
		c0,3.238-0.583,6.67-2.59,9.52c-2.072,2.914-5.44,4.922-9.843,5.116l9.908,19.362h-2.202L137.34,27.651h1.166
		c4.209,0,6.8-0.972,9.066-3.108s3.238-5.569,3.238-9.52c0-3.626-1.036-8.03-4.468-10.556c-2.72-2.007-6.929-1.878-10.296-1.878
		h-5.181v46.173h-1.943V0.842z"/>
	<path d="M166.803,32.379L154.045,0.842h2.072l11.656,29.529l11.592-29.529h2.072l-12.692,31.537v16.384h-1.943V32.379z"/>
	<path d="M227.93,34.904c0,6.735-4.209,14.7-13.6,14.7c-10.038,0-16.189-8.937-16.189-24.803C198.141,10.556,202.998,0,214.331,0
		c9.196,0,13.6,8.289,13.6,16.125h-1.749c0-4.922-2.461-14.377-11.851-14.377c-10.685,0-14.247,10.426-14.247,23.767
		c0,14.829,5.958,22.342,14.247,22.342c8.613,0,11.592-6.864,11.851-12.952H227.93z"/>
	<path d="M231.812,24.737C231.812,11.203,237.77,0,249.103,0c11.332,0,17.29,11.203,17.29,24.802
		c0,10.686-4.274,24.803-17.29,24.803c-11.333,0-17.291-11.203-17.291-24.803V24.737z M233.755,24.867
		c0,14.053,6.087,22.989,15.348,22.989c9.26,0,15.348-8.937,15.348-23.055c0-14.117-6.088-23.054-15.348-23.054
		c-9.261,0-15.348,8.937-15.348,23.054V24.867z"/>
	<path d="M273.513,0.842h1.943v46.173h16.902v1.748h-18.846V0.842z"/>
	<path d="M297.472,0.842h1.942v46.173h16.902v1.748h-18.845V0.842z"/>
	<path d="M321.431,0.842h1.942v47.921h-1.942V0.842z"/>
	<path d="M359.443,47.727V0.842h1.943v47.921h-3.433L334.381,1.878v46.885h-1.942V0.842h3.497L359.443,47.727z"/>
	<path d="M370.06,36.653c0.842,8.871,6.864,11.203,10.103,11.203c5.958,0,11.073-4.145,11.073-11.397
		c0-8.678-6.411-10.556-10.814-11.852c-3.497-1.036-11.333-3.043-11.333-12.045C368.959,4.598,374.01,0,380.486,0
		c6.152,0,10.556,3.367,11.463,11.203H390.2c-0.647-3.562-2.267-9.455-9.714-9.455c-5.828,0-9.454,4.209-9.454,10.361
		c-0.065,7.383,4.533,9.195,11.203,11.139c2.849,0.842,10.944,3.044,10.944,12.822c0,8.224-5.764,13.534-12.758,13.534
		c-5.439,0-11.722-3.82-12.109-12.951H370.06z"/>
</g>
</svg>
